<?xml version="1.0" encoding="utf-8"?>
<!-- Generator: Adobe Illustrator 24.1.1, SVG Export Plug-In . SVG Version: 6.00 Build 0)  -->
<svg version="1.1" id="logo" xmlns="http://www.w3.org/2000/svg" xmlns:xlink="http://www.w3.org/1999/xlink" x="0px" y="0px"
	 viewBox="0 0 434.63 433.09" style="enable-background:new 0 0 434.63 433.09;" xml:space="preserve">
	 
<style type="text/css">
	.st0{fill-rule:evenodd;clip-rule:evenodd;fill:#254C72;}
	.st1{fill-rule:evenodd;clip-rule:evenodd;fill:#00A099;}
	.st2{fill:#72252d;}
	.st3{fill-rule:evenodd;clip-rule:evenodd;fill:#72252d;}
	.st4{fill:#254C72;}
	.st5{fill:#00A099;}
</style>
<g>
	<g>
		<g>
			<g>
				<path class="st0" d="M68.32,143.66c-0.61-0.57-1.46-0.97-2.39-0.97H55.27c-1.82,0-3.32,1.54-3.32,3.37
					c0,1.91,1.5,3.41,3.32,3.41h9.25l7.83,7.83l-16.06,16.06H36.21c-0.61-2.07-1.66-3.85-3.12-5.23c-2.19-2.23-5.23-3.61-8.6-3.61
					c-3.37,0-6.41,1.38-8.6,3.61c-2.23,2.15-3.57,5.23-3.57,8.6c0,3.32,1.34,6.41,3.57,8.6l0.24,0.24c2.19,2.07,5.15,3.32,8.35,3.32
					c3.32,0,6.41-1.38,8.6-3.57c1.46-1.42,2.51-3.24,3.12-5.19H57.7c0.93,0,1.78-0.41,2.39-1.01l17.03-17.03l33.45,33.45
					c0.65,0.69,1.54,1.01,2.39,1.01h1.38v-6.85L68.32,143.66z M23.84,213.49c-0.57-1.95-1.66-3.73-3.08-5.19
					c-2.19-2.19-5.23-3.57-8.56-3.57c-3.37,0-6.45,1.34-8.68,3.57c-2.15,2.23-3.53,5.27-3.53,8.6c0,3.37,1.38,6.45,3.53,8.6
					c2.23,2.23,5.31,3.57,8.68,3.57c3.32,0,6.41-1.34,8.6-3.57c1.38-1.38,2.47-3.16,3.04-5.19h64.88l-12.61,12.65H38.52
					c-1.78,0-3.41,1.26-3.57,3.04c-0.24,2.03,1.38,3.73,3.37,3.73h39.17c0.97,0,1.78-0.37,2.39-0.97l18.45-18.45h16.02v-6.81H23.84z
					 M112.97,236.68c-0.85,0-1.74,0.32-2.39,0.97L77.12,271.1l-17.03-16.99c-0.61-0.65-1.46-1.01-2.39-1.01H36.21
					c-0.61-1.99-1.66-3.81-3.12-5.23c-2.19-2.19-5.27-3.57-8.6-3.57c-3.2,0-6.16,1.26-8.35,3.37l-0.24,0.24
					c-2.23,2.15-3.57,5.23-3.57,8.56c0,3.37,1.34,6.45,3.57,8.64c2.19,2.19,5.23,3.57,8.6,3.57c3.37,0,6.41-1.38,8.6-3.57
					c1.46-1.42,2.51-3.2,3.12-5.23h20.07l16.06,16.02l-7.83,7.83h-9.25c-1.82,0-3.32,1.5-3.32,3.37c0,1.91,1.5,3.41,3.32,3.41h10.66
					c0.93,0,1.78-0.36,2.39-0.97l46.02-46.02v-6.81H112.97z M124.04,75.34V23.88c1.99-0.61,3.77-1.66,5.23-3.12
					c2.19-2.19,3.57-5.23,3.57-8.6c0-3.37-1.42-6.41-3.57-8.6C127.08,1.34,124,0,120.67,0c-3.41,0-6.41,1.34-8.64,3.57
					c-2.19,2.19-3.57,5.27-3.57,8.6c0,3.37,1.38,6.41,3.57,8.6c1.42,1.46,3.2,2.51,5.23,3.12v52.87c0,0.93,0.37,1.78,0.97,2.39
					l34.43,34.43h9.61L124.04,75.34z M124.04,409.21v-51.46l38.24-38.24h-9.61l-34.43,34.43c-0.61,0.61-0.97,1.46-0.97,2.39v52.87
					c-2.03,0.61-3.81,1.66-5.23,3.08c-2.19,2.19-3.57,5.27-3.57,8.6c0,3.37,1.38,6.41,3.57,8.6c2.19,2.23,5.23,3.61,8.64,3.61
					c3.32,0,6.41-1.38,8.6-3.61c2.15-2.15,3.57-5.23,3.57-8.6c0-3.32-1.38-6.41-3.57-8.6C127.81,410.87,126.02,409.82,124.04,409.21
					z M181.53,393.15v-21.53c0-0.93-0.37-1.78-0.97-2.39l-17.03-17.03l32.68-32.68h-9.61L145.12,361c-0.61,0.65-0.97,1.5-0.97,2.39
					v10.66c0,1.95,1.66,3.57,3.69,3.37c1.78-0.16,3.08-1.78,3.08-3.57v-9.04l7.79-7.79L174.76,373v20.15
					c-2.03,0.61-3.81,1.66-5.23,3.08c-2.19,2.19-3.57,5.27-3.57,8.64c0,3.32,1.38,6.41,3.57,8.6c2.19,2.19,5.23,3.57,8.6,3.57
					c3.37,0,6.41-1.38,8.64-3.61l0.2-0.24c2.07-2.15,3.37-5.11,3.37-8.31c0-3.37-1.38-6.41-3.57-8.6
					C185.35,394.82,183.52,393.76,181.53,393.15z M163.53,80.89l17.03-17.03c0.61-0.65,0.97-1.46,0.97-2.43V39.94
					c1.99-0.61,3.81-1.7,5.23-3.12c2.19-2.19,3.57-5.23,3.57-8.6c0-3.2-1.3-6.16-3.37-8.35l-0.2-0.24
					c-2.23-2.23-5.27-3.61-8.64-3.61c-3.37,0-6.41,1.38-8.6,3.61c-2.19,2.19-3.57,5.23-3.57,8.6s1.38,6.41,3.57,8.6
					c1.42,1.46,3.2,2.51,5.23,3.12v20.11l-16.06,16.02l-7.79-7.79V59.2c0-1.78-1.3-3.41-3.08-3.57c-2.03-0.2-3.69,1.42-3.69,3.41
					v10.62c0,0.93,0.37,1.78,0.97,2.39l41.52,41.52h9.61L163.53,80.89z M226.3,408.56l-0.2-0.2c-1.38-1.34-3.08-2.31-4.99-2.88
					v-85.96h-6.81v11.52l-18.41,18.41c-0.61,0.61-0.97,1.46-0.97,2.39v39.05c0,1.74,1.26,3.37,3.04,3.53
					c2.03,0.2,3.73-1.38,3.73-3.37v-37.79l12.61-12.65v64.88c-1.99,0.57-3.73,1.66-5.19,3.08c-2.19,2.23-3.53,5.23-3.53,8.6
					c0,3.37,1.34,6.41,3.53,8.64c2.19,2.19,5.23,3.53,8.6,3.53s6.41-1.34,8.6-3.53c2.23-2.23,3.61-5.27,3.61-8.64
					C229.91,413.79,228.53,410.79,226.3,408.56z M226.3,7.3c-2.19-2.23-5.23-3.57-8.6-3.57s-6.41,1.34-8.6,3.57
					c-2.19,2.19-3.53,5.23-3.53,8.6s1.34,6.41,3.53,8.64c1.46,1.38,3.2,2.51,5.19,3.08v64.84l-12.61-12.61V42.21
					c0-1.78-1.3-3.41-3.04-3.57c-2.03-0.2-3.73,1.38-3.73,3.37v39.25c0,0.93,0.37,1.78,0.97,2.39l18.41,18.41v11.52h6.81V27.61
					c1.99-0.57,3.81-1.7,5.19-3.08c2.23-2.23,3.61-5.27,3.61-8.64S228.53,9.49,226.3,7.3z M289.47,55.75
					c-2.27-0.61-4.3,1.09-4.3,3.28v9.24l-7.83,7.79l-16.02-16.02V39.94c1.99-0.61,3.77-1.66,5.23-3.12c2.19-2.19,3.57-5.23,3.57-8.6
					s-1.38-6.41-3.57-8.6c-2.23-2.23-5.27-3.61-8.6-3.61c-3.37,0-6.45,1.38-8.64,3.61l-0.2,0.24c-2.11,2.19-3.37,5.15-3.37,8.35
					c0,3.37,1.38,6.41,3.57,8.6c1.42,1.42,3.2,2.51,5.23,3.12v21.49c0,0.97,0.36,1.78,1.01,2.43l16.95,17.03l-32.68,32.68h9.57
					l41.52-41.52c0.61-0.61,1.01-1.46,1.01-2.39v-10.5C291.95,57.62,290.97,56.16,289.47,55.75z M290.93,361l-41.48-41.48h-9.61
					l32.68,32.68l-16.95,17.03c-0.65,0.61-1.01,1.46-1.01,2.39v21.53c-2.03,0.61-3.81,1.66-5.23,3.12c-2.19,2.19-3.57,5.23-3.57,8.6
					c0,3.2,1.26,6.16,3.37,8.31l0.2,0.24c2.19,2.23,5.27,3.61,8.64,3.61c3.32,0,6.37-1.38,8.6-3.57c2.19-2.19,3.57-5.27,3.57-8.6
					c0-3.37-1.38-6.45-3.57-8.64c-1.46-1.42-3.24-2.47-5.23-3.08V373l16.02-15.98l7.83,7.79v9.04c0,1.78,1.26,3.41,3.04,3.57
					c2.03,0.2,3.73-1.42,3.73-3.37v-10.66C291.95,362.5,291.54,361.65,290.93,361z M324.06,412.29c-1.42-1.42-3.2-2.47-5.23-3.08
					v-52.87c0-0.93-0.37-1.78-1.01-2.39l-34.38-34.43h-9.57l38.2,38.24v51.46c-2.03,0.61-3.81,1.66-5.23,3.08
					c-2.23,2.19-3.57,5.27-3.57,8.6c0,3.37,1.38,6.45,3.57,8.6c2.19,2.23,5.27,3.61,8.6,3.61c3.37,0,6.41-1.38,8.64-3.61
					c2.19-2.15,3.57-5.23,3.57-8.6C327.63,417.56,326.25,414.48,324.06,412.29z M324.06,3.57l-0.24-0.2
					C321.63,1.26,318.71,0,315.42,0c-3.32,0-6.41,1.34-8.6,3.57c-2.19,2.19-3.57,5.23-3.57,8.6c0,3.37,1.34,6.41,3.57,8.6
					c1.42,1.46,3.2,2.51,5.23,3.12v51.46l-38.24,38.24h9.61l34.38-34.43c0.65-0.61,1.01-1.46,1.01-2.39V23.88
					c2.03-0.61,3.81-1.66,5.23-3.12c2.19-2.19,3.57-5.23,3.57-8.6C327.63,8.8,326.25,5.76,324.06,3.57z"/>
				<path class="st0" d="M418.74,247.91c2.15,2.15,3.57,5.23,3.57,8.56c0,3.37-1.38,6.45-3.57,8.64c-2.19,2.19-5.27,3.57-8.6,3.57
					c-3.41,0-6.45-1.38-8.64-3.57c-1.42-1.42-2.51-3.2-3.08-5.23h-20.11l-16.06,16.02l7.83,7.83h9.24c1.99,0,3.53,1.7,3.37,3.73
					c-0.2,1.74-1.78,3.04-3.57,3.04h-10.46c-0.93,0-1.78-0.36-2.39-0.97l-46.02-46.02v-6.81h1.38c0.85,0,1.74,0.32,2.39,0.97
					l33.45,33.45l17.03-16.99c0.61-0.65,1.46-1.01,2.39-1.01h21.53c0.57-1.99,1.66-3.81,3.08-5.23c2.23-2.19,5.23-3.57,8.64-3.57
					c3.2,0,6.16,1.26,8.35,3.37L418.74,247.91z"/>
				<path class="st0" d="M422.31,178.86c0,3.37-1.42,6.41-3.57,8.64l-0.24,0.2c-2.19,2.07-5.15,3.32-8.35,3.32
					c-3.41,0-6.41-1.34-8.64-3.53c-1.95-1.95-3.2-4.5-3.49-7.38h-21.13c-0.93,0-1.78-0.41-2.39-1.01l-17.03-17.03l-33.45,33.45
					c-0.65,0.69-1.54,1.01-2.39,1.01h-1.38v-6.81l46.02-46.06c0.61-0.57,1.46-0.97,2.39-0.97h10.66c1.99,0,3.57,1.74,3.32,3.73
					c-0.16,1.78-1.78,3.04-3.53,3.04h-9.04l-7.83,7.83l16.06,16.06h20.96c0.61-1.18,1.34-2.23,2.23-3.12
					c2.19-2.19,5.23-3.53,8.64-3.53c3.32,0,6.41,1.34,8.6,3.53C420.93,172.45,422.31,175.49,422.31,178.86z"/>
				<path class="st0" d="M434.63,216.89c0,3.37-1.42,6.45-3.61,8.6c-2.19,2.23-5.23,3.57-8.6,3.57c-3.37,0-6.41-1.34-8.6-3.57
					c-1.46-1.38-2.51-3.16-3.08-5.19h-64.88l12.61,12.65h37.59c1.78,0,3.41,1.26,3.61,3.04c0.2,2.03-1.38,3.73-3.41,3.73h-39.21
					c-0.89,0-1.74-0.37-2.35-0.97l-18.41-18.45h-16.06v-6.81h90.5c0.57-1.95,1.66-3.73,3.08-5.15c2.19-2.23,5.23-3.61,8.6-3.61
					c3.37,0,6.41,1.34,8.6,3.57C433.22,210.53,434.63,213.57,434.63,216.89z"/>
			</g>
		</g>
		<path class="st1" d="M322.71,330.38H111.9c-4.65,0-8.42-3.77-8.42-8.42V111.14c0-4.65,3.77-8.42,8.42-8.42h210.82
			c4.65,0,8.42,3.77,8.42,8.42v210.82C331.14,326.61,327.37,330.38,322.71,330.38z"/>
		<path class="st2" d="M269.25,195.78l-1.61-0.75l-6.63-3.09l-7.13-3.33l-11.41-5.32l-6.69-3.12l-0.04-0.02l-14.89-6.94
			c-0.35-0.16-0.74,0.09-0.74,0.48v39.65c0,0.2,0.12,0.39,0.3,0.47l3.48,1.62l11.89,5.55l6.65,3.1l11.15,5.2
			c0.18,0.08,0.3,0.27,0.3,0.47v5.07c0,0.38-0.4,0.64-0.74,0.48l-17.36-8.1l-0.02-0.01l-14.76-6.88v0l-0.89-0.42l-2.62-1.22
			c-0.14-0.06-0.3-0.06-0.44,0l-0.77,0.36l-2.75,1.28l-31.67,14.78l-1.12,0.52v-5.88c0-0.2,0.12-0.39,0.3-0.48l17.7-8.25l15.44-7.2
			c0.15-0.09,0.24-0.26,0.24-0.44v-39.65c0-0.38-0.4-0.64-0.74-0.48l-14.93,6.96l-18.01,8.4l-15.37,7.16
			c-0.18,0.08-0.3,0.27-0.3,0.48v63.16c0,0.3,0.25,0.53,0.54,0.52h0.01c0.06,0,0.13-0.02,0.2-0.05l2.71-1.26l48.53-22.63
			c0.14-0.07,0.29-0.07,0.44,0l2.62,1.22l15.67,7.3l18.1,8.44l14.93,6.96c0.34,0.16,0.74-0.09,0.74-0.48v-39.65
			c0-0.2-0.12-0.39-0.3-0.48l-8.28-3.86l-7.09-3.31l-11.45-5.34l-6.35-2.96c-0.08-0.04-0.15-0.1-0.2-0.17
			c-0.04-0.06-0.06-0.12-0.08-0.18l0.11-0.05c-0.06-0.09-0.1-0.19-0.1-0.3v-4.86c0-0.37,0.38-0.61,0.71-0.46l5.71,2.66l0,0
			l0.24,0.11l6.63,3.09l4.78,2.23l13.75,6.41l1.18,0.55c0.34,0.16,0.74-0.09,0.74-0.48v-16.14
			C269.55,196.05,269.42,195.86,269.25,195.78z M180.73,206.19c0-0.2,0.12-0.38,0.3-0.47l16.96-7.91c0.35-0.16,0.74,0.09,0.74,0.48
			v5.06c0,0.19-0.1,0.37-0.27,0.46l0,0l-17.03,7.94c-0.33,0.12-0.7-0.12-0.7-0.49V206.19z"/>
		<g>
			<path class="st3" d="M127.86,154.7c0-2.69,2.96-4.62,5.42-3.36c1.21,0.49,2.11,1.93,2.11,3.36v7.53c0,2.69-2.91,4.62-5.38,3.32
				c-1.21-0.49-2.15-1.93-2.15-3.32V154.7z"/>
			<path class="st3" d="M127.86,184.7c0-2.69,2.96-4.62,5.42-3.36c1.21,0.49,2.11,1.93,2.11,3.36v7.44c0,2.73-2.91,4.66-5.38,3.41
				c-1.21-0.45-2.15-1.93-2.15-3.41V184.7z"/>
			<path class="st3" d="M127.86,214.69c0-2.73,2.96-4.62,5.42-3.41c1.21,0.54,2.11,1.97,2.11,3.41v7.49c0,2.73-2.91,4.62-5.38,3.36
				c-1.21-0.45-2.15-1.93-2.15-3.36V214.69z"/>
			<path class="st3" d="M127.86,244.63c0-2.69,2.96-4.57,5.42-3.36c1.21,0.49,2.11,1.97,2.11,3.36v7.53c0,2.73-2.91,4.57-5.38,3.36
				c-1.21-0.49-2.15-1.93-2.15-3.36V244.63z"/>
			<path class="st3" d="M127.86,274.62c0-2.73,2.96-4.62,5.42-3.36c1.21,0.49,2.11,1.97,2.11,3.36v7.49c0,2.73-2.91,4.62-5.38,3.41
				c-1.21-0.49-2.15-1.97-2.15-3.41V274.62z"/>
			<path class="st3" d="M142.52,131.75c-0.49,1.21-1.97,2.11-3.36,2.11h-7.53c-2.69,0-4.62-2.87-3.32-5.38
				c0.45-1.21,1.93-2.11,3.32-2.11h7.53C141.85,126.37,143.73,129.29,142.52,131.75z"/>
			<path class="st3" d="M140.73,299.32c2.69,0,4.62,2.87,3.36,5.38c-0.49,1.17-1.93,2.11-3.36,2.11h-7.49
				c-2.73,0-4.66-2.87-3.41-5.38c0.49-1.21,1.97-2.11,3.41-2.11H140.73z"/>
			<path class="st3" d="M172.51,131.75c-0.49,1.21-1.97,2.11-3.36,2.11h-7.53c-2.69,0-4.62-2.87-3.36-5.38
				c0.49-1.21,1.97-2.11,3.36-2.11h7.53C171.84,126.37,173.72,129.29,172.51,131.75z"/>
			<path class="st3" d="M170.72,299.32c2.69,0,4.62,2.87,3.36,5.38c-0.49,1.17-1.93,2.11-3.36,2.11h-7.49
				c-2.73,0-4.66-2.87-3.41-5.38c0.49-1.21,1.97-2.11,3.41-2.11H170.72z"/>
			<path class="st3" d="M191.61,133.86c-2.69,0-4.62-2.87-3.36-5.38c0.45-1.21,1.93-2.11,3.36-2.11h7.49c2.73,0,4.62,2.91,3.36,5.38
				c-0.49,1.21-1.93,2.11-3.36,2.11H191.61z"/>
			<path class="st3" d="M200.66,306.81h-7.49c-2.69,0-4.62-2.87-3.36-5.38c0.49-1.21,1.93-2.11,3.36-2.11h7.49
				c2.73,0,4.66,2.87,3.41,5.38C203.58,305.87,202.1,306.81,200.66,306.81z"/>
			<path class="st3" d="M221.6,133.86c-2.69,0-4.62-2.87-3.36-5.38c0.45-1.21,1.93-2.11,3.36-2.11h7.49c2.69,0,4.62,2.91,3.36,5.38
				c-0.49,1.21-1.93,2.11-3.36,2.11H221.6z"/>
			<path class="st3" d="M223.17,306.81c-2.73,0-4.62-2.87-3.36-5.38c0.45-1.21,1.97-2.11,3.36-2.11h7.53c2.69,0,4.57,2.87,3.32,5.38
				c-0.45,1.17-1.93,2.11-3.32,2.11H223.17z"/>
			<path class="st3" d="M251.59,133.86c-2.69,0-4.62-2.87-3.36-5.38c0.45-1.21,1.93-2.11,3.36-2.11h7.49c2.69,0,4.62,2.91,3.36,5.38
				c-0.49,1.21-1.93,2.11-3.36,2.11H251.59z"/>
			<path class="st3" d="M253.16,306.81c-2.73,0-4.62-2.87-3.36-5.38c0.45-1.21,1.97-2.11,3.36-2.11h7.49c2.73,0,4.62,2.87,3.36,5.38
				c-0.45,1.17-1.97,2.11-3.36,2.11H253.16z"/>
			<path class="st3" d="M281.54,126.37h7.53c2.69,0,4.57,2.91,3.32,5.38c-0.45,1.21-1.93,2.11-3.32,2.11h-7.53
				c-2.69,0-4.57-2.87-3.32-5.38C278.67,127.27,280.15,126.37,281.54,126.37z"/>
			<path class="st3" d="M290.64,306.81h-7.49c-2.73,0-4.62-2.87-3.41-5.38c0.49-1.21,1.97-2.11,3.41-2.11h7.49
				c2.73,0,4.62,2.87,3.36,5.38C293.51,305.87,292.03,306.81,290.64,306.81z"/>
			<path class="st3" d="M308.34,144.57c0,2.73-2.91,4.66-5.42,3.41c-1.17-0.49-2.11-1.93-2.11-3.41v-7.49
				c0-2.69,2.91-4.62,5.42-3.36c1.17,0.49,2.11,1.97,2.11,3.36V144.57z"/>
			<path class="st3" d="M308.34,174.56c0,2.73-2.91,4.66-5.42,3.41c-1.17-0.49-2.11-1.97-2.11-3.41v-7.49
				c0-2.69,2.91-4.62,5.42-3.36c1.17,0.49,2.11,1.93,2.11,3.36V174.56z"/>
			<path class="st3" d="M308.34,204.55c0,2.73-2.91,4.66-5.42,3.41c-1.17-0.49-2.11-1.97-2.11-3.41v-7.49
				c0-2.69,2.91-4.62,5.42-3.36c1.17,0.49,2.11,1.93,2.11,3.36V204.55z"/>
			<path class="st3" d="M308.34,234.55c0,2.73-2.91,4.62-5.42,3.36c-1.17-0.45-2.11-1.97-2.11-3.36v-7.49
				c0-2.73,2.91-4.62,5.42-3.36c1.17,0.45,2.11,1.93,2.11,3.36V234.55z"/>
			<path class="st3" d="M308.34,264.54c0,2.73-2.91,4.62-5.42,3.36c-1.17-0.45-2.11-1.97-2.11-3.36v-7.49
				c0-2.73,2.91-4.62,5.42-3.41c1.17,0.49,2.11,1.97,2.11,3.41V264.54z"/>
			<path class="st3" d="M308.34,287v7.53c0,2.69-2.91,4.62-5.42,3.36c-1.17-0.49-2.11-1.97-2.11-3.36V287
				c0-2.69,2.91-4.57,5.42-3.32C307.4,284.13,308.34,285.61,308.34,287z"/>
		</g>
	</g>
</g>

</svg>
