<?xml version="1.0" encoding="utf-8"?>
<!-- Generator: Adobe Illustrator 24.1.1, SVG Export Plug-In . SVG Version: 6.00 Build 0)  -->
<svg version="1.1" id="Layer_1" xmlns="http://www.w3.org/2000/svg" xmlns:xlink="http://www.w3.org/1999/xlink" x="0px" y="0px"
	 viewBox="0 0 1024 433.09" style="enable-background:new 0 0 1024 433.09;" xml:space="preserve">
<style type="text/css">
	.st0{fill-rule:evenodd;clip-rule:evenodd;fill:#254C72;}
	.st1{fill-rule:evenodd;clip-rule:evenodd;fill:#00A099;}
	.st2{fill:#FFFFFF;}
	.st3{fill-rule:evenodd;clip-rule:evenodd;fill:#FFFFFF;}
	.st4{fill:#254C72;}
	.st5{fill:#00A099;}
</style>
<g>
	<g>
		<g>
			<g>
				<path class="st4" d="M516.31,341.66h-12v-84.03h12V341.66z M565.65,304.2h-50.54v-10.44h50.54V304.2z M564.57,257.62h12v84.03
					h-12V257.62z"/>
				<path class="st4" d="M606.59,341.66v-84.03h12v84.03H606.59z"/>
				<path class="st4" d="M644.05,304.2v-9.96h32.29v9.96H644.05z"/>
				<path class="st4" d="M716.44,341.66v-73.59h-28.81v-10.44h69.51v10.44h-28.81v73.59H716.44z"/>
				<path class="st4" d="M787.02,331.21H836v10.44h-60.99v-84.03h59.31v10.44h-47.3V331.21z M785.94,293.88h43.22v10.21h-43.22
					V293.88z"/>
				<path class="st4" d="M897.71,342.62c-6.4,0-12.3-1.06-17.71-3.18c-5.4-2.12-10.08-5.12-14.04-9c-3.96-3.88-7.06-8.42-9.31-13.63
					c-2.24-5.2-3.36-10.92-3.36-17.17s1.12-11.96,3.36-17.17c2.24-5.2,5.36-9.74,9.36-13.63c4-3.88,8.71-6.88,14.11-9
					c5.4-2.12,11.3-3.18,17.71-3.18c6.48,0,12.46,1.1,17.95,3.3c5.48,2.2,10.14,5.46,13.99,9.78l-7.81,7.56
					c-3.2-3.36-6.8-5.86-10.8-7.5c-4-1.64-8.28-2.46-12.85-2.46c-4.72,0-9.1,0.8-13.14,2.4c-4.04,1.6-7.54,3.84-10.5,6.72
					c-2.96,2.88-5.26,6.3-6.9,10.26c-1.64,3.96-2.46,8.27-2.46,12.91c0,4.64,0.82,8.94,2.46,12.9c1.64,3.96,3.94,7.38,6.9,10.27
					c2.96,2.88,6.46,5.12,10.5,6.72c4.04,1.6,8.42,2.4,13.14,2.4c4.56,0,8.84-0.82,12.85-2.46c4-1.64,7.6-4.18,10.8-7.62l7.81,7.56
					c-3.84,4.32-8.51,7.6-13.99,9.85C910.3,341.5,904.27,342.62,897.71,342.62z"/>
				<path class="st4" d="M963.73,341.66h-12v-84.03h12V341.66z M1013.08,304.2h-50.54v-10.44h50.54V304.2z M1012,257.62h12v84.03
					h-12V257.62z"/>
			</g>
		</g>
		<g>
			<g>
				<path class="st5" d="M541.06,196.22c-8.93,0-16.77-1.75-23.51-5.24c-6.75-3.49-11.96-8.27-15.65-14.34
					c-3.69-6.06-5.53-12.98-5.53-20.75c0-7.86,1.82-14.82,5.46-20.89c3.64-6.06,8.61-10.82,14.92-14.27
					c6.31-3.44,13.44-5.17,21.4-5.17c7.67,0,14.58,1.63,20.75,4.88c6.16,3.25,11.04,7.91,14.63,13.98
					c3.59,6.07,5.39,13.32,5.39,21.76c0,0.87-0.05,1.87-0.15,2.98c-0.1,1.12-0.2,2.16-0.29,3.13h-63.62v-13.25h51.68l-8.73,3.93
					c0-4.08-0.83-7.62-2.48-10.63c-1.65-3.01-3.93-5.36-6.84-7.06c-2.91-1.7-6.31-2.55-10.19-2.55c-3.88,0-7.31,0.85-10.26,2.55
					c-2.96,1.7-5.27,4.08-6.92,7.13c-1.65,3.06-2.47,6.67-2.47,10.85v3.49c0,4.27,0.95,8.03,2.84,11.28
					c1.89,3.25,4.56,5.73,8.01,7.42c3.45,1.7,7.5,2.55,12.16,2.55c4.17,0,7.84-0.63,10.99-1.89c3.15-1.26,6.04-3.15,8.66-5.68
					l12.08,13.1c-3.59,4.08-8.1,7.21-13.54,9.39C554.4,195.12,548.14,196.22,541.06,196.22z"/>
				<path class="st5" d="M629.14,196.8c-8.15,0-15.97-1.09-23.44-3.28c-7.47-2.18-13.49-5.02-18.05-8.52l8.01-17.76
					c4.37,3.11,9.54,5.65,15.5,7.64c5.97,1.99,12.01,2.98,18.12,2.98c4.66,0,8.42-0.46,11.28-1.38c2.86-0.92,4.97-2.21,6.33-3.86
					c1.36-1.65,2.04-3.54,2.04-5.68c0-2.72-1.07-4.88-3.2-6.48c-2.14-1.6-4.95-2.91-8.44-3.93c-3.5-1.02-7.35-1.99-11.57-2.91
					c-4.22-0.92-8.44-2.06-12.67-3.42c-4.22-1.36-8.08-3.1-11.57-5.24c-3.5-2.13-6.33-4.95-8.52-8.44
					c-2.18-3.5-3.28-7.96-3.28-13.39c0-5.82,1.58-11.14,4.73-15.94c3.15-4.8,7.91-8.64,14.27-11.5c6.36-2.86,14.34-4.29,23.95-4.29
					c6.41,0,12.71,0.75,18.93,2.26c6.21,1.51,11.69,3.76,16.45,6.77l-7.28,17.91c-4.76-2.72-9.51-4.73-14.27-6.04
					c-4.75-1.31-9.41-1.96-13.98-1.96s-8.3,0.53-11.21,1.6c-2.91,1.07-5,2.45-6.26,4.15c-1.26,1.7-1.89,3.66-1.89,5.9
					c0,2.62,1.07,4.73,3.2,6.33c2.13,1.6,4.95,2.89,8.44,3.86c3.5,0.97,7.35,1.94,11.57,2.91c4.22,0.97,8.45,2.09,12.67,3.35
					c4.22,1.26,8.08,2.96,11.57,5.1c3.5,2.14,6.33,4.95,8.52,8.44c2.19,3.49,3.28,7.91,3.28,13.25c0,5.73-1.6,10.97-4.8,15.72
					c-3.2,4.76-7.99,8.59-14.34,11.5C646.87,195.34,638.84,196.8,629.14,196.8z"/>
				<path class="st5" d="M686.93,223.29V116.73h21.69v16.01l-0.44,23.29l1.46,23.15v44.11H686.93z M733.22,196.22
					c-6.6,0-12.37-1.46-17.32-4.37c-4.95-2.91-8.81-7.35-11.57-13.32c-2.77-5.97-4.15-13.51-4.15-22.64
					c0-9.22,1.31-16.79,3.93-22.71c2.62-5.92,6.41-10.34,11.36-13.25c4.95-2.91,10.87-4.37,17.76-4.37c7.38,0,14,1.67,19.87,5.02
					c5.87,3.35,10.53,8.03,13.98,14.05c3.44,6.02,5.17,13.1,5.17,21.25c0,8.25-1.72,15.38-5.17,21.4
					c-3.44,6.02-8.1,10.68-13.98,13.98C747.22,194.57,740.6,196.22,733.22,196.22z M729.29,177.58c3.78,0,7.16-0.87,10.12-2.62
					c2.96-1.75,5.34-4.24,7.13-7.5c1.79-3.25,2.69-7.11,2.69-11.57c0-4.56-0.9-8.44-2.69-11.65c-1.8-3.2-4.18-5.68-7.13-7.42
					c-2.96-1.75-6.33-2.62-10.12-2.62c-3.79,0-7.18,0.87-10.19,2.62c-3.01,1.75-5.38,4.22-7.13,7.42c-1.75,3.2-2.62,7.09-2.62,11.65
					c0,4.47,0.87,8.32,2.62,11.57c1.75,3.25,4.12,5.75,7.13,7.5C722.11,176.71,725.51,177.58,729.29,177.58z"/>
				<path class="st5" d="M810.24,196.22c-6.11,0-11.36-1.04-15.72-3.13c-4.37-2.08-7.72-4.92-10.05-8.52
					c-2.33-3.59-3.49-7.62-3.49-12.08c0-4.66,1.14-8.73,3.42-12.23c2.28-3.49,5.9-6.24,10.85-8.23c4.95-1.99,11.4-2.98,19.36-2.98
					h20.82v13.25h-18.34c-5.34,0-9,0.87-10.99,2.62c-1.99,1.75-2.98,3.93-2.98,6.55c0,2.91,1.14,5.22,3.42,6.92
					c2.28,1.7,5.41,2.55,9.39,2.55c3.79,0,7.18-0.9,10.19-2.69c3.01-1.8,5.19-4.44,6.55-7.93l3.49,10.48
					c-1.65,5.05-4.66,8.88-9.03,11.5C822.76,194.91,817.13,196.22,810.24,196.22z M834.11,195.05v-15.29l-1.46-3.35v-27.37
					c0-4.85-1.48-8.64-4.44-11.35c-2.96-2.72-7.5-4.08-13.61-4.08c-4.18,0-8.28,0.65-12.3,1.96c-4.03,1.31-7.45,3.08-10.26,5.31
					l-8.15-15.87c4.27-3.01,9.41-5.34,15.43-6.99c6.01-1.65,12.13-2.48,18.34-2.48c11.94,0,21.21,2.82,27.81,8.44
					c6.6,5.63,9.9,14.41,9.9,26.35v44.69H834.11z"/>
				<path class="st5" d="M875.9,195.05v-78.32h21.69v22.13l-3.06-6.41c2.33-5.53,6.06-9.73,11.21-12.59
					c5.14-2.86,11.4-4.3,18.78-4.3v20.96c-0.97-0.1-1.84-0.17-2.62-0.22c-0.78-0.05-1.6-0.07-2.47-0.07
					c-6.21,0-11.23,1.77-15.07,5.31c-3.83,3.54-5.75,9.05-5.75,16.52v36.98H875.9z"/>
				<path class="st5" d="M938.06,195.05V87.03h22.71v108.02H938.06z M956.84,179.04l0.58-27.66l36.54-34.65h27.08l-35.08,35.67
					L974.16,162L956.84,179.04z M996.44,195.05l-26.5-32.9l14.27-17.62l39.74,50.52H996.44z"/>
			</g>
		</g>
	</g>
	<g>
		<g>
			<g>
				<path class="st0" d="M68.32,143.66c-0.61-0.57-1.46-0.97-2.39-0.97H55.27c-1.82,0-3.32,1.54-3.32,3.37
					c0,1.91,1.5,3.41,3.32,3.41h9.25l7.83,7.83l-16.06,16.06H36.21c-0.61-2.07-1.66-3.85-3.12-5.23c-2.19-2.23-5.23-3.61-8.6-3.61
					c-3.37,0-6.41,1.38-8.6,3.61c-2.23,2.15-3.57,5.23-3.57,8.6c0,3.32,1.34,6.41,3.57,8.6l0.24,0.24c2.19,2.07,5.15,3.32,8.35,3.32
					c3.32,0,6.41-1.38,8.6-3.57c1.46-1.42,2.51-3.24,3.12-5.19H57.7c0.93,0,1.78-0.41,2.39-1.01l17.03-17.03l33.45,33.45
					c0.65,0.69,1.54,1.01,2.39,1.01h1.38v-6.85L68.32,143.66z M23.84,213.49c-0.57-1.95-1.66-3.73-3.08-5.19
					c-2.19-2.19-5.23-3.57-8.56-3.57c-3.37,0-6.45,1.34-8.68,3.57c-2.15,2.23-3.53,5.27-3.53,8.6c0,3.37,1.38,6.45,3.53,8.6
					c2.23,2.23,5.31,3.57,8.68,3.57c3.32,0,6.41-1.34,8.6-3.57c1.38-1.38,2.47-3.16,3.04-5.19h64.88l-12.61,12.65H38.52
					c-1.78,0-3.41,1.26-3.57,3.04c-0.24,2.03,1.38,3.73,3.37,3.73h39.17c0.97,0,1.78-0.37,2.39-0.97l18.45-18.45h16.02v-6.81H23.84z
					 M112.97,236.68c-0.85,0-1.74,0.32-2.39,0.97L77.12,271.1l-17.03-16.99c-0.61-0.65-1.46-1.01-2.39-1.01H36.21
					c-0.61-1.99-1.66-3.81-3.12-5.23c-2.19-2.19-5.27-3.57-8.6-3.57c-3.2,0-6.16,1.26-8.35,3.37l-0.24,0.24
					c-2.23,2.15-3.57,5.23-3.57,8.56c0,3.37,1.34,6.45,3.57,8.64c2.19,2.19,5.23,3.57,8.6,3.57c3.37,0,6.41-1.38,8.6-3.57
					c1.46-1.42,2.51-3.2,3.12-5.23h20.07l16.06,16.02l-7.83,7.83h-9.25c-1.82,0-3.32,1.5-3.32,3.37c0,1.91,1.5,3.41,3.32,3.41h10.66
					c0.93,0,1.78-0.36,2.39-0.97l46.02-46.02v-6.81H112.97z M124.04,75.34V23.88c1.99-0.61,3.77-1.66,5.23-3.12
					c2.19-2.19,3.57-5.23,3.57-8.6c0-3.37-1.42-6.41-3.57-8.6C127.08,1.34,124,0,120.67,0c-3.41,0-6.41,1.34-8.64,3.57
					c-2.19,2.19-3.57,5.27-3.57,8.6c0,3.37,1.38,6.41,3.57,8.6c1.42,1.46,3.2,2.51,5.23,3.12v52.87c0,0.93,0.37,1.78,0.97,2.39
					l34.43,34.43h9.61L124.04,75.34z M124.04,409.21v-51.46l38.24-38.24h-9.61l-34.43,34.43c-0.61,0.61-0.97,1.46-0.97,2.39v52.87
					c-2.03,0.61-3.81,1.66-5.23,3.08c-2.19,2.19-3.57,5.27-3.57,8.6c0,3.37,1.38,6.41,3.57,8.6c2.19,2.23,5.23,3.61,8.64,3.61
					c3.32,0,6.41-1.38,8.6-3.61c2.15-2.15,3.57-5.23,3.57-8.6c0-3.32-1.38-6.41-3.57-8.6C127.81,410.87,126.02,409.82,124.04,409.21
					z M181.53,393.15v-21.53c0-0.93-0.37-1.78-0.97-2.39l-17.03-17.03l32.68-32.68h-9.61L145.12,361c-0.61,0.65-0.97,1.5-0.97,2.39
					v10.66c0,1.95,1.66,3.57,3.69,3.37c1.78-0.16,3.08-1.78,3.08-3.57v-9.04l7.79-7.79L174.76,373v20.15
					c-2.03,0.61-3.81,1.66-5.23,3.08c-2.19,2.19-3.57,5.27-3.57,8.64c0,3.32,1.38,6.41,3.57,8.6c2.19,2.19,5.23,3.57,8.6,3.57
					c3.37,0,6.41-1.38,8.64-3.61l0.2-0.24c2.07-2.15,3.37-5.11,3.37-8.31c0-3.37-1.38-6.41-3.57-8.6
					C185.35,394.82,183.52,393.76,181.53,393.15z M163.53,80.89l17.03-17.03c0.61-0.65,0.97-1.46,0.97-2.43V39.94
					c1.99-0.61,3.81-1.7,5.23-3.12c2.19-2.19,3.57-5.23,3.57-8.6c0-3.2-1.3-6.16-3.37-8.35l-0.2-0.24
					c-2.23-2.23-5.27-3.61-8.64-3.61c-3.37,0-6.41,1.38-8.6,3.61c-2.19,2.19-3.57,5.23-3.57,8.6s1.38,6.41,3.57,8.6
					c1.42,1.46,3.2,2.51,5.23,3.12v20.11l-16.06,16.02l-7.79-7.79V59.2c0-1.78-1.3-3.41-3.08-3.57c-2.03-0.2-3.69,1.42-3.69,3.41
					v10.62c0,0.93,0.37,1.78,0.97,2.39l41.52,41.52h9.61L163.53,80.89z M226.3,408.56l-0.2-0.2c-1.38-1.34-3.08-2.31-4.99-2.88
					v-85.96h-6.81v11.52l-18.41,18.41c-0.61,0.61-0.97,1.46-0.97,2.39v39.05c0,1.74,1.26,3.37,3.04,3.53
					c2.03,0.2,3.73-1.38,3.73-3.37v-37.79l12.61-12.65v64.88c-1.99,0.57-3.73,1.66-5.19,3.08c-2.19,2.23-3.53,5.23-3.53,8.6
					c0,3.37,1.34,6.41,3.53,8.64c2.19,2.19,5.23,3.53,8.6,3.53s6.41-1.34,8.6-3.53c2.23-2.23,3.61-5.27,3.61-8.64
					C229.91,413.79,228.53,410.79,226.3,408.56z M226.3,7.3c-2.19-2.23-5.23-3.57-8.6-3.57s-6.41,1.34-8.6,3.57
					c-2.19,2.19-3.53,5.23-3.53,8.6s1.34,6.41,3.53,8.64c1.46,1.38,3.2,2.51,5.19,3.08v64.84l-12.61-12.61V42.21
					c0-1.78-1.3-3.41-3.04-3.57c-2.03-0.2-3.73,1.38-3.73,3.37v39.25c0,0.93,0.37,1.78,0.97,2.39l18.41,18.41v11.52h6.81V27.61
					c1.99-0.57,3.81-1.7,5.19-3.08c2.23-2.23,3.61-5.27,3.61-8.64S228.53,9.49,226.3,7.3z M289.47,55.75
					c-2.27-0.61-4.3,1.09-4.3,3.28v9.24l-7.83,7.79l-16.02-16.02V39.94c1.99-0.61,3.77-1.66,5.23-3.12c2.19-2.19,3.57-5.23,3.57-8.6
					s-1.38-6.41-3.57-8.6c-2.23-2.23-5.27-3.61-8.6-3.61c-3.37,0-6.45,1.38-8.64,3.61l-0.2,0.24c-2.11,2.19-3.37,5.15-3.37,8.35
					c0,3.37,1.38,6.41,3.57,8.6c1.42,1.42,3.2,2.51,5.23,3.12v21.49c0,0.97,0.36,1.78,1.01,2.43l16.95,17.03l-32.68,32.68h9.57
					l41.52-41.52c0.61-0.61,1.01-1.46,1.01-2.39v-10.5C291.95,57.62,290.97,56.16,289.47,55.75z M290.93,361l-41.48-41.48h-9.61
					l32.68,32.68l-16.95,17.03c-0.65,0.61-1.01,1.46-1.01,2.39v21.53c-2.03,0.61-3.81,1.66-5.23,3.12c-2.19,2.19-3.57,5.23-3.57,8.6
					c0,3.2,1.26,6.16,3.37,8.31l0.2,0.24c2.19,2.23,5.27,3.61,8.64,3.61c3.32,0,6.37-1.38,8.6-3.57c2.19-2.19,3.57-5.27,3.57-8.6
					c0-3.37-1.38-6.45-3.57-8.64c-1.46-1.42-3.24-2.47-5.23-3.08V373l16.02-15.98l7.83,7.79v9.04c0,1.78,1.26,3.41,3.04,3.57
					c2.03,0.2,3.73-1.42,3.73-3.37v-10.66C291.95,362.5,291.54,361.65,290.93,361z M324.06,412.29c-1.42-1.42-3.2-2.47-5.23-3.08
					v-52.87c0-0.93-0.37-1.78-1.01-2.39l-34.38-34.43h-9.57l38.2,38.24v51.46c-2.03,0.61-3.81,1.66-5.23,3.08
					c-2.23,2.19-3.57,5.27-3.57,8.6c0,3.37,1.38,6.45,3.57,8.6c2.19,2.23,5.27,3.61,8.6,3.61c3.37,0,6.41-1.38,8.64-3.61
					c2.19-2.15,3.57-5.23,3.57-8.6C327.63,417.56,326.25,414.48,324.06,412.29z M324.06,3.57l-0.24-0.2
					C321.63,1.26,318.71,0,315.42,0c-3.32,0-6.41,1.34-8.6,3.57c-2.19,2.19-3.57,5.23-3.57,8.6c0,3.37,1.34,6.41,3.57,8.6
					c1.42,1.46,3.2,2.51,5.23,3.12v51.46l-38.24,38.24h9.61l34.38-34.43c0.65-0.61,1.01-1.46,1.01-2.39V23.88
					c2.03-0.61,3.81-1.66,5.23-3.12c2.19-2.19,3.57-5.23,3.57-8.6C327.63,8.8,326.25,5.76,324.06,3.57z"/>
				<path class="st0" d="M418.74,247.91c2.15,2.15,3.57,5.23,3.57,8.56c0,3.37-1.38,6.45-3.57,8.64c-2.19,2.19-5.27,3.57-8.6,3.57
					c-3.41,0-6.45-1.38-8.64-3.57c-1.42-1.42-2.51-3.2-3.08-5.23h-20.11l-16.06,16.02l7.83,7.83h9.24c1.99,0,3.53,1.7,3.37,3.73
					c-0.2,1.74-1.78,3.04-3.57,3.04h-10.46c-0.93,0-1.78-0.36-2.39-0.97l-46.02-46.02v-6.81h1.38c0.85,0,1.74,0.32,2.39,0.97
					l33.45,33.45l17.03-16.99c0.61-0.65,1.46-1.01,2.39-1.01h21.53c0.57-1.99,1.66-3.81,3.08-5.23c2.23-2.19,5.23-3.57,8.64-3.57
					c3.2,0,6.16,1.26,8.35,3.37L418.74,247.91z"/>
				<path class="st0" d="M422.31,178.86c0,3.37-1.42,6.41-3.57,8.64l-0.24,0.2c-2.19,2.07-5.15,3.32-8.35,3.32
					c-3.41,0-6.41-1.34-8.64-3.53c-1.95-1.95-3.2-4.5-3.49-7.38h-21.13c-0.93,0-1.78-0.41-2.39-1.01l-17.03-17.03l-33.45,33.45
					c-0.65,0.69-1.54,1.01-2.39,1.01h-1.38v-6.81l46.02-46.06c0.61-0.57,1.46-0.97,2.39-0.97h10.66c1.99,0,3.57,1.74,3.32,3.73
					c-0.16,1.78-1.78,3.04-3.53,3.04h-9.04l-7.83,7.83l16.06,16.06h20.96c0.61-1.18,1.34-2.23,2.23-3.12
					c2.19-2.19,5.23-3.53,8.64-3.53c3.32,0,6.41,1.34,8.6,3.53C420.93,172.45,422.31,175.49,422.31,178.86z"/>
				<path class="st0" d="M434.63,216.89c0,3.37-1.42,6.45-3.61,8.6c-2.19,2.23-5.23,3.57-8.6,3.57c-3.37,0-6.41-1.34-8.6-3.57
					c-1.46-1.38-2.51-3.16-3.08-5.19h-64.88l12.61,12.65h37.59c1.78,0,3.41,1.26,3.61,3.04c0.2,2.03-1.38,3.73-3.41,3.73h-39.21
					c-0.89,0-1.74-0.37-2.35-0.97l-18.41-18.45h-16.06v-6.81h90.5c0.57-1.95,1.66-3.73,3.08-5.15c2.19-2.23,5.23-3.61,8.6-3.61
					c3.37,0,6.41,1.34,8.6,3.57C433.22,210.53,434.63,213.57,434.63,216.89z"/>
			</g>
		</g>
		<path class="st1" d="M322.71,330.38H111.9c-4.65,0-8.42-3.77-8.42-8.42V111.14c0-4.65,3.77-8.42,8.42-8.42h210.82
			c4.65,0,8.42,3.77,8.42,8.42v210.82C331.14,326.61,327.37,330.38,322.71,330.38z"/>
		<path class="st2" d="M269.25,195.78l-1.61-0.75l-6.63-3.09l-7.13-3.33l-11.41-5.32l-6.69-3.12l-0.04-0.02l-14.89-6.94
			c-0.35-0.16-0.74,0.09-0.74,0.48v39.65c0,0.2,0.12,0.39,0.3,0.47l3.48,1.62l11.89,5.55l6.65,3.1l11.15,5.2
			c0.18,0.08,0.3,0.27,0.3,0.47v5.07c0,0.38-0.4,0.64-0.74,0.48l-17.36-8.1l-0.02-0.01l-14.76-6.88v0l-0.89-0.42l-2.62-1.22
			c-0.14-0.06-0.3-0.06-0.44,0l-0.77,0.36l-2.75,1.28l-31.67,14.78l-1.12,0.52v-5.88c0-0.2,0.12-0.39,0.3-0.48l17.7-8.25l15.44-7.2
			c0.15-0.09,0.24-0.26,0.24-0.44v-39.65c0-0.38-0.4-0.64-0.74-0.48l-14.93,6.96l-18.01,8.4l-15.37,7.16
			c-0.18,0.08-0.3,0.27-0.3,0.48v63.16c0,0.3,0.25,0.53,0.54,0.52h0.01c0.06,0,0.13-0.02,0.2-0.05l2.71-1.26l48.53-22.63
			c0.14-0.07,0.29-0.07,0.44,0l2.62,1.22l15.67,7.3l18.1,8.44l14.93,6.96c0.34,0.16,0.74-0.09,0.74-0.48v-39.65
			c0-0.2-0.12-0.39-0.3-0.48l-8.28-3.86l-7.09-3.31l-11.45-5.34l-6.35-2.96c-0.08-0.04-0.15-0.1-0.2-0.17
			c-0.04-0.06-0.06-0.12-0.08-0.18l0.11-0.05c-0.06-0.09-0.1-0.19-0.1-0.3v-4.86c0-0.37,0.38-0.61,0.71-0.46l5.71,2.66l0,0
			l0.24,0.11l6.63,3.09l4.78,2.23l13.75,6.41l1.18,0.55c0.34,0.16,0.74-0.09,0.74-0.48v-16.14
			C269.55,196.05,269.42,195.86,269.25,195.78z M180.73,206.19c0-0.2,0.12-0.38,0.3-0.47l16.96-7.91c0.35-0.16,0.74,0.09,0.74,0.48
			v5.06c0,0.19-0.1,0.37-0.27,0.46l0,0l-17.03,7.94c-0.33,0.12-0.7-0.12-0.7-0.49V206.19z"/>
		<g>
			<path class="st3" d="M127.86,154.7c0-2.69,2.96-4.62,5.42-3.36c1.21,0.49,2.11,1.93,2.11,3.36v7.53c0,2.69-2.91,4.62-5.38,3.32
				c-1.21-0.49-2.15-1.93-2.15-3.32V154.7z"/>
			<path class="st3" d="M127.86,184.7c0-2.69,2.96-4.62,5.42-3.36c1.21,0.49,2.11,1.93,2.11,3.36v7.44c0,2.73-2.91,4.66-5.38,3.41
				c-1.21-0.45-2.15-1.93-2.15-3.41V184.7z"/>
			<path class="st3" d="M127.86,214.69c0-2.73,2.96-4.62,5.42-3.41c1.21,0.54,2.11,1.97,2.11,3.41v7.49c0,2.73-2.91,4.62-5.38,3.36
				c-1.21-0.45-2.15-1.93-2.15-3.36V214.69z"/>
			<path class="st3" d="M127.86,244.63c0-2.69,2.96-4.57,5.42-3.36c1.21,0.49,2.11,1.97,2.11,3.36v7.53c0,2.73-2.91,4.57-5.38,3.36
				c-1.21-0.49-2.15-1.93-2.15-3.36V244.63z"/>
			<path class="st3" d="M127.86,274.62c0-2.73,2.96-4.62,5.42-3.36c1.21,0.49,2.11,1.97,2.11,3.36v7.49c0,2.73-2.91,4.62-5.38,3.41
				c-1.21-0.49-2.15-1.97-2.15-3.41V274.62z"/>
			<path class="st3" d="M142.52,131.75c-0.49,1.21-1.97,2.11-3.36,2.11h-7.53c-2.69,0-4.62-2.87-3.32-5.38
				c0.45-1.21,1.93-2.11,3.32-2.11h7.53C141.85,126.37,143.73,129.29,142.52,131.75z"/>
			<path class="st3" d="M140.73,299.32c2.69,0,4.62,2.87,3.36,5.38c-0.49,1.17-1.93,2.11-3.36,2.11h-7.49
				c-2.73,0-4.66-2.87-3.41-5.38c0.49-1.21,1.97-2.11,3.41-2.11H140.73z"/>
			<path class="st3" d="M172.51,131.75c-0.49,1.21-1.97,2.11-3.36,2.11h-7.53c-2.69,0-4.62-2.87-3.36-5.38
				c0.49-1.21,1.97-2.11,3.36-2.11h7.53C171.84,126.37,173.72,129.29,172.51,131.75z"/>
			<path class="st3" d="M170.72,299.32c2.69,0,4.62,2.87,3.36,5.38c-0.49,1.17-1.93,2.11-3.36,2.11h-7.49
				c-2.73,0-4.66-2.87-3.41-5.38c0.49-1.21,1.97-2.11,3.41-2.11H170.72z"/>
			<path class="st3" d="M191.61,133.86c-2.69,0-4.62-2.87-3.36-5.38c0.45-1.21,1.93-2.11,3.36-2.11h7.49c2.73,0,4.62,2.91,3.36,5.38
				c-0.49,1.21-1.93,2.11-3.36,2.11H191.61z"/>
			<path class="st3" d="M200.66,306.81h-7.49c-2.69,0-4.62-2.87-3.36-5.38c0.49-1.21,1.93-2.11,3.36-2.11h7.49
				c2.73,0,4.66,2.87,3.41,5.38C203.58,305.87,202.1,306.81,200.66,306.81z"/>
			<path class="st3" d="M221.6,133.86c-2.69,0-4.62-2.87-3.36-5.38c0.45-1.21,1.93-2.11,3.36-2.11h7.49c2.69,0,4.62,2.91,3.36,5.38
				c-0.49,1.21-1.93,2.11-3.36,2.11H221.6z"/>
			<path class="st3" d="M223.17,306.81c-2.73,0-4.62-2.87-3.36-5.38c0.45-1.21,1.97-2.11,3.36-2.11h7.53c2.69,0,4.57,2.87,3.32,5.38
				c-0.45,1.17-1.93,2.11-3.32,2.11H223.17z"/>
			<path class="st3" d="M251.59,133.86c-2.69,0-4.62-2.87-3.36-5.38c0.45-1.21,1.93-2.11,3.36-2.11h7.49c2.69,0,4.62,2.91,3.36,5.38
				c-0.49,1.21-1.93,2.11-3.36,2.11H251.59z"/>
			<path class="st3" d="M253.16,306.81c-2.73,0-4.62-2.87-3.36-5.38c0.45-1.21,1.97-2.11,3.36-2.11h7.49c2.73,0,4.62,2.87,3.36,5.38
				c-0.45,1.17-1.97,2.11-3.36,2.11H253.16z"/>
			<path class="st3" d="M281.54,126.37h7.53c2.69,0,4.57,2.91,3.32,5.38c-0.45,1.21-1.93,2.11-3.32,2.11h-7.53
				c-2.69,0-4.57-2.87-3.32-5.38C278.67,127.27,280.15,126.37,281.54,126.37z"/>
			<path class="st3" d="M290.64,306.81h-7.49c-2.73,0-4.62-2.87-3.41-5.38c0.49-1.21,1.97-2.11,3.41-2.11h7.49
				c2.73,0,4.62,2.87,3.36,5.38C293.51,305.87,292.03,306.81,290.64,306.81z"/>
			<path class="st3" d="M308.34,144.57c0,2.73-2.91,4.66-5.42,3.41c-1.17-0.49-2.11-1.93-2.11-3.41v-7.49
				c0-2.69,2.91-4.62,5.42-3.36c1.17,0.49,2.11,1.97,2.11,3.36V144.57z"/>
			<path class="st3" d="M308.34,174.56c0,2.73-2.91,4.66-5.42,3.41c-1.17-0.49-2.11-1.97-2.11-3.41v-7.49
				c0-2.69,2.91-4.62,5.42-3.36c1.17,0.49,2.11,1.93,2.11,3.36V174.56z"/>
			<path class="st3" d="M308.34,204.55c0,2.73-2.91,4.66-5.42,3.41c-1.17-0.49-2.11-1.97-2.11-3.41v-7.49
				c0-2.69,2.91-4.62,5.42-3.36c1.17,0.49,2.11,1.93,2.11,3.36V204.55z"/>
			<path class="st3" d="M308.34,234.55c0,2.73-2.91,4.62-5.42,3.36c-1.17-0.45-2.11-1.97-2.11-3.36v-7.49
				c0-2.73,2.91-4.62,5.42-3.36c1.17,0.45,2.11,1.93,2.11,3.36V234.55z"/>
			<path class="st3" d="M308.34,264.54c0,2.73-2.91,4.62-5.42,3.36c-1.17-0.45-2.11-1.97-2.11-3.36v-7.49
				c0-2.73,2.91-4.62,5.42-3.41c1.17,0.49,2.11,1.97,2.11,3.41V264.54z"/>
			<path class="st3" d="M308.34,287v7.53c0,2.69-2.91,4.62-5.42,3.36c-1.17-0.49-2.11-1.97-2.11-3.36V287
				c0-2.69,2.91-4.57,5.42-3.32C307.4,284.13,308.34,285.61,308.34,287z"/>
		</g>
	</g>
</g>
</svg>
